<svg xmlns="http://www.w3.org/2000/svg" width="820" height="782" viewBox="0 0 820 782" font-family="ui-monospace, DejaVu Sans Mono, monospace"><rect width="820" height="782" fill="#f4f2ec"/><text x="40.0" y="52.0" fill="#20242a" font-size="27" text-anchor="start" font-weight="bold">XC3702</text>
<text x="40.0" y="76.0" fill="#8a867c" font-size="12.5" text-anchor="start" font-weight="normal">Barometric pressure sensor module</text>
<text x="40.0" y="96.0" fill="#8a867c" font-size="11.5" text-anchor="start" font-weight="normal">body 22 x 17 mm  ·  4 pin  ·  2.54 mm pitch  ·  1 mA  ·  I2C @ 0x76 or 0x77</text>
<text x="40.0" y="114.0" fill="#8a867c" font-size="10" text-anchor="start" font-weight="normal">body to scale (aspect + mm) · pin spacing enlarged for legibility</text>
<rect x="40" y="168" width="324.0" height="250.4" rx="9" fill="#2b3138" stroke="#1a1e24"/>
<text x="202.0" y="298.2" fill="#e7ebef" font-size="15" text-anchor="middle" font-weight="bold">XC3702</text>
<line x1="40" y1="154" x2="364.0" y2="154" stroke="#8a867c" stroke-width="1"/>
<text x="202.0" y="148.0" fill="#8a867c" font-size="10" text-anchor="middle" font-weight="normal">22 mm</text>
<line x1="376.0" y1="168" x2="376.0" y2="418.4" stroke="#8a867c"/>
<text x="382.0" y="293.2" fill="#8a867c" font-size="10" text-anchor="start" font-weight="normal">17 mm</text>
<rect x="78.0" y="415.4" width="14" height="12" fill="#c81e1e"/>
<line x1="85.0" y1="418.4" x2="85.0" y2="464.4" stroke="#c81e1e" stroke-width="3.4" stroke-linecap="round"/>
<circle cx="85.0" cy="464.4" r="4" fill="#c81e1e"/>
<text x="85.0" y="480.4" fill="#8a867c" font-size="10" text-anchor="middle" font-weight="normal">1</text>
<text x="85.0" y="495.4" fill="#20242a" font-size="12" text-anchor="middle" font-weight="bold">VCC</text>
<text x="85.0" y="510.4" fill="#c81e1e" font-size="9.5" text-anchor="middle" font-weight="normal">PWR</text>
<text x="85.0" y="525.4" fill="#8a867c" font-size="10.5" text-anchor="middle" font-weight="normal">3.3V</text>
<rect x="156.0" y="415.4" width="14" height="12" fill="#3c3c3c"/>
<line x1="163.0" y1="418.4" x2="163.0" y2="464.4" stroke="#3c3c3c" stroke-width="3.4" stroke-linecap="round"/>
<circle cx="163.0" cy="464.4" r="4" fill="#3c3c3c"/>
<text x="163.0" y="480.4" fill="#8a867c" font-size="10" text-anchor="middle" font-weight="normal">2</text>
<text x="163.0" y="495.4" fill="#20242a" font-size="12" text-anchor="middle" font-weight="bold">GND</text>
<text x="163.0" y="510.4" fill="#3c3c3c" font-size="9.5" text-anchor="middle" font-weight="normal">GND</text>
<rect x="234.0" y="415.4" width="14" height="12" fill="#0b62c9"/>
<line x1="241.0" y1="418.4" x2="241.0" y2="464.4" stroke="#0b62c9" stroke-width="3.4" stroke-linecap="round"/>
<circle cx="241.0" cy="464.4" r="4" fill="#0b62c9"/>
<text x="241.0" y="480.4" fill="#8a867c" font-size="10" text-anchor="middle" font-weight="normal">3</text>
<text x="241.0" y="495.4" fill="#20242a" font-size="12" text-anchor="middle" font-weight="bold">SDA</text>
<text x="241.0" y="510.4" fill="#0b62c9" font-size="9.5" text-anchor="middle" font-weight="normal">I2C</text>
<text x="241.0" y="525.4" fill="#8a867c" font-size="10.5" text-anchor="middle" font-weight="normal">3.3V</text>
<rect x="312.0" y="415.4" width="14" height="12" fill="#0b62c9"/>
<line x1="319.0" y1="418.4" x2="319.0" y2="464.4" stroke="#0b62c9" stroke-width="3.4" stroke-linecap="round"/>
<circle cx="319.0" cy="464.4" r="4" fill="#0b62c9"/>
<text x="319.0" y="480.4" fill="#8a867c" font-size="10" text-anchor="middle" font-weight="normal">4</text>
<text x="319.0" y="495.4" fill="#20242a" font-size="12" text-anchor="middle" font-weight="bold">SCL</text>
<text x="319.0" y="510.4" fill="#0b62c9" font-size="9.5" text-anchor="middle" font-weight="normal">I2C</text>
<text x="319.0" y="525.4" fill="#8a867c" font-size="10.5" text-anchor="middle" font-weight="normal">3.3V</text>
<rect x="40" y="612.3636363636364" width="740.0" height="62" rx="7" fill="#ffffff" stroke="#c9c2b1"/>
<text x="56.0" y="632.4" fill="#20242a" font-size="12" text-anchor="start" font-weight="bold">before you wire it</text>
<text x="56.0" y="652.4" fill="#20242a" font-size="10.5" text-anchor="start" font-weight="normal">·  Address is 0x76 or 0x77 depending on the board's ADDR strap. i2cdetect before you write code.</text>
<text x="56.0" y="669.4" fill="#20242a" font-size="10.5" text-anchor="start" font-weight="normal">·  Shares the I2C bus with the OLED. Two devices, two addresses, one pair of wires.</text>
<text x="40.0" y="760.0" fill="#8a867c" font-size="10" text-anchor="start" font-weight="normal">source: Jaycar listing + loa bench 2026-09-07</text></svg>